<mxfile host="app.diagrams.net" modified="2024-05-11T22:01:01.057Z" agent="Mozilla/5.0 (Windows NT 10.0; Win64; x64) AppleWebKit/537.36 (KHTML, like Gecko) Chrome/124.0.0.0 Safari/537.36" version="24.4.0" etag="-EZx44OwlxlxXY4d1vZR" type="github">
  <diagram name="PÃ¡gina-1" id="2o9w_dN2TRY1TWdAmOXj">
    <mxGraphModel>
      <root>
        <mxCell id="0" />
        <mxCell id="1" parent="0" />
      </root>
    </mxGraphModel>
  </diagram>
</mxfile>
